<svg width="560" height="560" viewBox="0 0 560 560" fill="none" xmlns="http://www.w3.org/2000/svg">
  <defs>
    <linearGradient id="recentShell" x1="96" y1="78" x2="471" y2="462" gradientUnits="userSpaceOnUse">
      <stop stop-color="#F5FF91"/>
      <stop offset="0.44" stop-color="#DFFF50"/>
      <stop offset="1" stop-color="#7D8F24"/>
    </linearGradient>
    <linearGradient id="recentGlass" x1="162" y1="147" x2="407" y2="396" gradientUnits="userSpaceOnUse">
      <stop stop-color="#FEFFF7" stop-opacity="0.92"/>
      <stop offset="1" stop-color="#EEF8BF" stop-opacity="0.66"/>
    </linearGradient>
    <radialGradient id="recentGlow" cx="0" cy="0" r="1" gradientUnits="userSpaceOnUse" gradientTransform="translate(179 129) rotate(45) scale(310)">
      <stop stop-color="#FFFFFF" stop-opacity="0.95"/>
      <stop offset="0.32" stop-color="#FFFFFF" stop-opacity="0.22"/>
      <stop offset="1" stop-color="#FFFFFF" stop-opacity="0"/>
    </radialGradient>
    <filter id="recentShadow" x="36" y="44" width="488" height="488" filterUnits="userSpaceOnUse" color-interpolation-filters="sRGB">
      <feDropShadow dx="0" dy="28" stdDeviation="26" flood-color="#000000" flood-opacity="0.48"/>
    </filter>
  </defs>
  <g filter="url(#recentShadow)">
    <path d="M96 181C96 137.37 137.37 96 181 96H379C422.63 96 464 137.37 464 181V379C464 422.63 422.63 464 379 464H181C137.37 464 96 422.63 96 379V181Z" fill="url(#recentShell)"/>
    <path d="M96 181C96 137.37 137.37 96 181 96H379C422.63 96 464 137.37 464 181V379C464 422.63 422.63 464 379 464H181C137.37 464 96 422.63 96 379V181Z" fill="url(#recentGlow)"/>
    <path d="M137 208C137 168.788 168.788 137 208 137H352C391.212 137 423 168.788 423 208V352C423 391.212 391.212 423 352 423H208C168.788 423 137 391.212 137 352V208Z" fill="#11130F" fill-opacity="0.94"/>
    <path d="M162 224C162 189.758 189.758 162 224 162H336C370.242 162 398 189.758 398 224V336C398 370.242 370.242 398 336 398H224C189.758 398 162 370.242 162 336V224Z" fill="url(#recentGlass)"/>
    <path d="M206 303C206 260.475 240.475 226 283 226C325.525 226 360 260.475 360 303" stroke="#11130F" stroke-width="19" stroke-linecap="round"/>
    <path d="M283 303L325 261" stroke="#11130F" stroke-width="15" stroke-linecap="round"/>
    <path d="M225 340H341" stroke="#11130F" stroke-width="18" stroke-linecap="round"/>
    <path d="M222 202L236 174L250 202" stroke="#DFFF50" stroke-width="10" stroke-linecap="round" stroke-linejoin="round"/>
    <path d="M326 202L340 174L354 202" stroke="#DFFF50" stroke-width="10" stroke-linecap="round" stroke-linejoin="round"/>
    <circle cx="283" cy="303" r="13" fill="#11130F"/>
    <path d="M161 161L399 399" stroke="#FFFFFF" stroke-opacity="0.25" stroke-width="3"/>
  </g>
</svg>
